<?xml version="1.0"?>
<svg xmlns="http://www.w3.org/2000/svg" viewBox="0 0 24 24">
    <path style="fill:#2793DA;text-indent:0;text-align:start;line-height:normal;text-transform:none;block-progression:tb;-inkscape-font-specification:Bitstream Vera Sans" d="M 12 1 C 8.6975704 1 6 3.6986161 6 7 L 6 8 C 4.895 8 4 8.896 4 10 L 4 20 C 4 21.104 4.895 22 6 22 L 18 22 C 19.105 22 20 21.104 20 20 L 20 10 C 20 8.896 19.105 8 18 8 L 18 7 C 18 3.6983746 15.301625 1 12 1 z M 12 3 C 14.220375 3 16 4.7796254 16 7 L 16 8 L 8 8 L 8 7 C 8 4.7793839 9.7784296 3 12 3 z M 11.96875 9.96875 C 14.96375 9.96875 15 12.201 15 12.625 C 14.999 14.859 12.5635 14.9825 12.6875 16.9375 L 10.9375 16.9375 C 10.7905 14.3165 13.03125 14.19775 13.03125 12.71875 C 13.03125 11.65575 12.31675 11.5625 11.96875 11.5625 C 10.92775 11.5625 10.879 12.547 10.875 12.75 L 8.90625 12.75 C 8.91125 12.276 9.00975 9.96875 11.96875 9.96875 z M 11.84375 17.96875 C 12.83475 17.96875 12.9375 18.88225 12.9375 19.03125 C 12.9375 19.17525 12.83475 20.0625 11.84375 20.0625 C 10.81675 20.0625 10.75 19.17525 10.75 19.03125 C 10.75 18.88225 10.83675 17.96875 11.84375 17.96875 z" overflow="visible" font-family="Bitstream Vera Sans"/>
</svg>
